<svg id="Objects" xmlns="http://www.w3.org/2000/svg" viewBox="0 0 60.73 97.54"><defs><style>.cls-1{isolation:isolate;}.cls-2{fill:#3f3fba;}.cls-3{fill:#cb4100;}.cls-4{fill:#ff5d00;}.cls-5{fill:#00c78a;}</style></defs><title>mehdi4j_logo_recolor</title><g class="cls-1"><path class="cls-2" d="M316.08,406.4l-21.14-12.29a1.07,1.07,0,0,1-.35-1l21.14,12.29A1.07,1.07,0,0,0,316.08,406.4Z" transform="translate(-294.41 -308.93)"/><path class="cls-3" d="M345.95,388l-0.1-35.76L324.7,339.93l0.1,35.76a1.07,1.07,0,0,0,.36,1L346.3,389A1.07,1.07,0,0,1,345.95,388Z" transform="translate(-294.41 -308.93)"/><polygon class="cls-3" points="40.97 64.13 19.82 51.84 27.39 7.83 48.53 20.12 40.97 64.13"/><path class="cls-3" d="M332.18,396.08l-6.95-32-21.14-12.29,6.95,32a1.11,1.11,0,0,0,.44.73l21.14,12.29A1.11,1.11,0,0,1,332.18,396.08Z" transform="translate(-294.41 -308.93)"/><path class="cls-4" d="M333.47,309a1.07,1.07,0,0,0-1,.18l-9.13,5.27a3.14,3.14,0,0,0-1.52,2.31l21.14,12.29a3.14,3.14,0,0,1,1.52-2.31l9.13-5.27a1.07,1.07,0,0,1,1-.18Z" transform="translate(-294.41 -308.93)"/><polygon class="cls-3" points="21.32 96.49 0.17 84.2 0 23.81 21.14 36.1 21.32 96.49"/><path class="cls-4" d="M306,324.91a1.09,1.09,0,0,0-1.08.17l-9.13,5.27a2.64,2.64,0,0,0-1.38,2.39L315.55,345a2.64,2.64,0,0,1,1.38-2.39l9.13-5.27a1.09,1.09,0,0,1,1.08-.17Z" transform="translate(-294.41 -308.93)"/><path class="cls-5" d="M353.59,321.48c0.9-.52,1.38-0.24,1.38.8l0.17,60.39a2.63,2.63,0,0,1-1.37,2.39l-6.44,3.72c-0.89.52-1.38,0.24-1.38-.8l-0.1-35.76-0.49.28-6.75,39.87a3.14,3.14,0,0,1-1.52,2.31l-3.39,2c-0.83.48-1.31,0.28-1.52-.55l-6.95-32-0.49.28,0.1,35.76a2.64,2.64,0,0,1-1.38,2.39l-6.36,3.67c-0.9.52-1.39,0.24-1.39-.79L315.55,345a2.64,2.64,0,0,1,1.38-2.39l9.13-5.27c0.83-.48,1.31-0.28,1.52.55l7.79,35.14,7.57-44a3.14,3.14,0,0,1,1.52-2.31Z" transform="translate(-294.41 -308.93)"/></g></svg>