<svg xmlns="http://www.w3.org/2000/svg" viewBox="0 0 512 512"><defs><style>.cls-1{fill:#51c78d;}.cls-2{fill:#fff;}</style></defs><g id="Layer_2" data-name="Layer 2"><g id="Layer_1-2" data-name="Layer 1"><rect class="cls-1" width="512" height="512"/><path d="M399.83,296.76a45.07,45.07,0,0,1-45.07,45.06H165.92A53.75,53.75,0,0,1,157.22,235c-.05-1.06-.08-2.13-.08-3.2a62,62,0,0,1,122.35-14.26A45.06,45.06,0,0,1,354.76,251c0,.23,0,.47,0,.69h0A45.07,45.07,0,0,1,399.83,296.76Z"/><path class="cls-2" d="M166,350.13a61.83,61.83,0,0,1-16.69-121.36A70.09,70.09,0,0,1,284,204.89a53.13,53.13,0,0,1,79.21,46.28c0,.35,0,.72,0,1.07a8,8,0,1,1-15.91-.77c0-.1,0-.2,0-.3a37.19,37.19,0,0,0-62.11-27.6,8,8,0,0,1-13.1-4.09A54.16,54.16,0,0,0,165.2,232c0,.91,0,1.85.07,2.82a8,8,0,0,1-6.68,8.24A45.89,45.89,0,0,0,166,334.2a8,8,0,0,1,0,15.93Z"/></g></g></svg>
